# xmcd
#
# Track frame offsets: 
#        150
#        18897
#        40872
#        57440
#        74490
#        93345
#        101700
#        120900
#        140317
#        159742
#        178977
#        196887
#
# Disc length: 2886 seconds
#
# Revision: 2
# Processed by: cddbd v1.5.2PL0 Copyright (c) Steve Scherf et al.
# Submitted via: ExactAudioCopy v0.99pb4
#
DISCID=a20b440c
DTITLE=The Classic - 마법의 성
DYEAR=1900
DGENRE=Ballad
TTITLE0=마법의 성
TTITLE1=오비이락
TTITLE2=그대의 향기
TTITLE3=Jerry Jerry Go  Go
TTITLE4=그녀의 모든 아침
TTITLE5=뭐 그렇지
TTITLE6=서툰 이별
TTITLE7=엘비나
TTITLE8=마법의 성 kid version
TTITLE9=이별덤덤
TTITLE10=문제아
TTITLE11=마법의 성 sing-together version
EXTD=
EXTT0=
EXTT1=
EXTT2=
EXTT3=
EXTT4=
EXTT5=
EXTT6=
EXTT7=
EXTT8=
EXTT9=
EXTT10=
EXTT11=
PLAYORDER=
